<?xml version="1.0" standalone="no"?>
<!DOCTYPE svg PUBLIC "-//W3C//DTD SVG 20010904//EN"
 "http://www.w3.org/TR/2001/REC-SVG-20010904/DTD/svg10.dtd">
<svg version="1.0" xmlns="http://www.w3.org/2000/svg"
 width="640.000000pt" height="640.000000pt" viewBox="0 0 640.000000 640.000000"
 preserveAspectRatio="xMidYMid meet">

<g transform="translate(0.000000,640.000000) scale(0.100000,-0.100000)"
fill="#000000" stroke="none">
<path d="M2935 6389 c-853 -72 -1650 -487 -2197 -1145 -878 -1058 -981 -2566
-255 -3733 326 -523 782 -929 1347 -1200 227 -108 333 -145 412 -146 72 0 102
14 142 69 20 27 21 38 18 349 -2 177 -4 322 -5 324 -1 1 -47 -5 -102 -12 -117
-17 -352 -19 -445 -5 -162 26 -286 85 -385 185 -69 70 -84 93 -164 265 -45 98
-138 243 -202 314 -24 27 -73 68 -109 91 -121 78 -162 138 -121 178 19 20 32
22 130 22 107 0 108 0 196 -44 111 -55 203 -143 304 -294 118 -174 244 -271
406 -312 119 -30 307 -14 448 39 l61 22 23 95 c29 115 79 218 138 286 l45 51
-53 7 c-872 110 -1305 523 -1388 1324 -16 158 -6 430 20 544 40 174 128 355
238 494 29 37 53 71 53 77 0 6 -9 38 -19 71 -61 195 -49 467 31 701 l24 69 78
3 c167 6 427 -91 703 -265 l102 -64 78 20 c448 112 934 116 1395 11 l128 -29
92 58 c285 179 524 271 704 271 l83 0 30 -92 c45 -141 61 -247 62 -393 0 -130
-15 -238 -46 -325 l-15 -41 49 -58 c200 -241 294 -549 277 -905 -30 -631 -235
-1014 -677 -1264 -151 -86 -434 -169 -686 -203 l-92 -12 45 -50 c51 -57 113
-180 140 -277 16 -58 19 -129 23 -630 6 -542 7 -566 26 -599 26 -44 78 -71
138 -71 85 0 396 130 622 260 398 229 759 556 1025 929 540 759 720 1729 490
2641 -206 814 -728 1516 -1455 1953 -567 342 -1250 501 -1910 446z"/>
</g>
</svg>
